<svg xmlns="http://www.w3.org/2000/svg" xmlns:xlink="http://www.w3.org/1999/xlink" version="1.1" x="0px" y="0px" viewBox="0 0 100 125" style="enable-background:new 0 0 100 100;" xml:space="preserve"><g><path d="M87.5,54.2h-75c-2.3,0-4.2-1.9-4.2-4.2c0-2.3,1.9-4.2,4.2-4.2h75c2.3,0,4.2,1.9,4.2,4.2C91.7,52.3,89.8,54.2,87.5,54.2z" fill="#ffd700"/></g><g><path d="M87.5,29.2h-75c-2.3,0-4.2-1.9-4.2-4.2s1.9-4.2,4.2-4.2h75c2.3,0,4.2,1.9,4.2,4.2S89.8,29.2,87.5,29.2z" fill="#ffd700"/></g><g><path d="M87.5,79.2h-75c-2.3,0-4.2-1.9-4.2-4.2s1.9-4.2,4.2-4.2h75c2.3,0,4.2,1.9,4.2,4.2S89.8,79.2,87.5,79.2z" fill="#ffd700"/></g><text x="0" y="115" fill="#ffd700" font-size="5px" font-weight="bold" font-family="'Helvetica Neue', Helvetica, Arial-Unicode, Arial, Sans-serif">Created by Olya Luksha</text><text x="0" y="120" fill="#ffd700" font-size="5px" font-weight="bold" font-family="'Helvetica Neue', Helvetica, Arial-Unicode, Arial, Sans-serif">from the Noun Project</text></svg>