<svg xmlns="http://www.w3.org/2000/svg" version="1.1" viewBox="-5.0 -10.0 110.0 135.0">
 <path d="m24.863 27h33.34c0.99609 0 1.8008-0.80469 1.8008-1.8008v-2.5977c0-0.99609-0.80469-1.8008-1.8008-1.8008h-33.34c-0.99609 0-1.8008 0.80469-1.8008 1.8008v2.5977c0 0.99609 0.80469 1.8008 1.8008 1.8008zm-0.074219-4.3984c0-0.042968 0.035157-0.074218 0.074219-0.078124h33.34c0.042969 0.003906 0.074219 0.035156 0.078125 0.078124v2.5977c-0.003906 0.042969-0.035156 0.074219-0.078125 0.074219h-33.34c-0.042969 0-0.074219-0.03125-0.074219-0.074219zm-1.8516 7.4648v-0.003906c0-0.22656 0.089844-0.44922 0.25-0.60938 0.16406-0.16016 0.38281-0.25391 0.61328-0.25391h35.469c0.47656 0 0.86328 0.38672 0.86328 0.86328 0 0.48047-0.38672 0.86719-0.86328 0.86719h-35.469c-0.47656 0-0.86328-0.38672-0.86719-0.86328zm-4.3203 14.656v-7.3359c0-1.0938 0.88672-1.9844 1.9844-1.9883h7.3359-0.003906c0.47656 0 0.86328 0.38672 0.86328 0.86719 0 0.47656-0.38672 0.86328-0.86328 0.86328h-7.332c-0.14453 0-0.25781 0.11328-0.25781 0.25781v7.3359-0.003906c0 0.14062 0.11328 0.25391 0.25781 0.25781h7.3359-0.003906c0.14062-0.003906 0.25391-0.11719 0.25781-0.25781 0-0.47656 0.38672-0.86328 0.86328-0.86328 0.47656 0 0.86328 0.38672 0.86328 0.86328 0 1.0938-0.88672 1.9844-1.9844 1.9844h-7.332c-1.0938 0-1.9805-0.88672-1.9844-1.9805zm13.121-7.8594c0.31641 0.35938 0.28516 0.90625-0.074219 1.2227l-6.2148 5.5h0.003906c-0.33203 0.29297-0.83203 0.28906-1.1602-0.011719l-2.5469-2.3438c-0.33594-0.32812-0.35156-0.86328-0.035156-1.207 0.32031-0.34375 0.85547-0.375 1.207-0.0625l1.9727 1.8164 5.6289-4.9844v-0.003907c0.35938-0.31641 0.90625-0.28125 1.2188 0.074219zm3.8359 2.1211v0.003906c0-0.47656 0.38672-0.86328 0.86328-0.86328h21.449c0.47656 0 0.86328 0.38672 0.86328 0.86328 0 0.47656-0.38672 0.86328-0.86328 0.86328h-21.445c-0.23047 0-0.44922-0.089843-0.61328-0.25391-0.16016-0.16016-0.25391-0.37891-0.25391-0.60938zm0.86328 3.5547 27.148 0.003907c0.47656 0 0.86328 0.38672 0.86328 0.86328 0 0.48047-0.38672 0.86719-0.86328 0.86719h-27.145c-0.48047 0-0.86719-0.38672-0.86719-0.86719 0-0.47656 0.38672-0.86328 0.86719-0.86328zm-6.5156 23.16c-0.003906 1.0977-0.89062 1.9844-1.9844 1.9844h-7.3359c-1.0977 0-1.9844-0.89062-1.9844-1.9844v-7.3281c0-1.0977 0.88672-1.9844 1.9844-1.9844h7.3359-0.003906c0.47656 0 0.86328 0.38672 0.86328 0.86328s-0.38672 0.86328-0.86328 0.86328h-7.332c-0.14453 0.003907-0.25781 0.11719-0.25781 0.25781v7.3281c0 0.14062 0.11328 0.25781 0.25781 0.25781h7.3359-0.003906c0.14062 0 0.25391-0.11719 0.25781-0.25781 0-0.47656 0.38672-0.86328 0.86328-0.86328 0.47656 0 0.86328 0.38672 0.86328 0.86328zm1.8203-7.8555h-0.003907c0.31641 0.35547 0.28516 0.90234-0.074219 1.2188l-6.2148 5.5h0.003906c-0.33203 0.29297-0.83203 0.28906-1.1602-0.011719l-2.5469-2.3438v0.003907c-0.33594-0.32813-0.35156-0.86328-0.035156-1.207 0.32031-0.34766 0.85547-0.375 1.207-0.066406l1.9727 1.8164 5.6289-4.9844c0.35938-0.31641 0.90625-0.27734 1.2188 0.078125zm3.8359 2.1211-0.003906 0.003906c0-0.48047 0.38672-0.86719 0.86328-0.86719h21.449c0.47656 0 0.86328 0.38672 0.86328 0.86719 0 0.47656-0.38672 0.86328-0.86328 0.86328h-21.445c-0.47656 0-0.86328-0.38672-0.86719-0.85938zm28.875 4.4219h-0.003906c0 0.47656-0.38672 0.86328-0.86328 0.86328h-27.145c-0.48047 0-0.86719-0.38672-0.86719-0.86328 0-0.47656 0.38672-0.86328 0.86719-0.86328h27.145c0.23047 0 0.45312 0.089843 0.61328 0.25391 0.16406 0.16406 0.25391 0.38281 0.25 0.61328zm-34.531 22.301c-0.003906 1.0977-0.89062 1.9844-1.9844 1.9844h-7.3359c-1.0977 0-1.9844-0.88672-1.9844-1.9844v-7.332c0-1.0977 0.88672-1.9844 1.9844-1.9883h7.3359-0.003906c0.47656 0 0.86328 0.38672 0.86328 0.86719 0 0.47656-0.38672 0.86328-0.86328 0.86328h-7.332c-0.14453 0-0.25781 0.11328-0.25781 0.25781v7.3359-0.003906c0 0.14062 0.11328 0.25781 0.25781 0.25781h7.3359-0.003906c0.14062 0 0.25391-0.11719 0.25781-0.25781 0-0.47656 0.38672-0.86328 0.86328-0.86328 0.47656 0 0.86328 0.38672 0.86328 0.86328zm34.531-1.3125h-0.003906c0 0.47656-0.38672 0.86328-0.86328 0.86328h-27.145c-0.48047 0-0.86719-0.38672-0.86719-0.86328s0.38672-0.86328 0.86719-0.86328h27.145c0.47656 0 0.86328 0.38672 0.86328 0.86328zm22.879-40.207c-0.13281-0.49219-0.45312-0.91406-0.89453-1.168l-2.2695-1.3125c-0.91797-0.52734-2.0938-0.21484-2.625 0.70312l-0.75781 1.3086c-0.38672-0.12891-0.8125 0.035156-1.0156 0.39062l-3.668 6.3594v-43.773c0-0.47656-0.38672-0.86328-0.86719-0.86328h-56.133c-0.48047 0-0.86719 0.38672-0.86719 0.86328v4.7695l-4.7695-0.003906c-0.47656 0-0.86328 0.38672-0.86328 0.86719v79.016c0 0.47656 0.38672 0.86328 0.86328 0.86328h56.137c0.47656 0 0.86328-0.38672 0.86328-0.86328v-4.7656h4.7695-0.003906c0.48047 0 0.86719-0.38672 0.86719-0.86328v-19.566l10.461-18.121c0.20312-0.35547 0.13281-0.80469-0.17188-1.0742l0.75391-1.3086c0.25391-0.44141 0.32422-0.96484 0.19141-1.457zm-4.293-0.91016c0.054688-0.09375 0.17188-0.12109 0.26563-0.074218l2.2695 1.3125c0.089843 0.054687 0.12109 0.17188 0.070312 0.26562l-0.74609 1.2891-2.6055-1.5zm-4.0859 10.082c0.66406 0.38281 1.4062 0.59375 2.1719 0.62109l-0.52734 0.91406v0.003906c-0.79688 0.25-1.6602 0.15625-2.3828-0.26172-0.72656-0.41406-1.2383-1.1172-1.418-1.9336l0.52734-0.91406c0.40625 0.64844 0.96484 1.1875 1.6289 1.5703zm-9.7539 21.285-3.8008-2.1914 10.328-17.891c0.82422 1.3203 2.2461 2.1406 3.8008 2.1914zm-4.2344-0.44922 2.9453 1.6992-3.3008 2.3086zm-45-66.637h54.406v45.898l-3.8984 6.7617v-47.898h-0.003906c0-0.48047-0.38672-0.86719-0.86328-0.86719h-49.645zm48.773 82.922h-54.41v-77.289h54.41v50.023l-5.2656 9.1211-0.007812 0.015625c-0.011719 0.023438-0.023438 0.050781-0.035156 0.078125-0.011719 0.023438-0.023438 0.050782-0.03125 0.074219-0.007813 0.027344-0.011719 0.050781-0.019532 0.078125-0.007812 0.03125-0.011718 0.0625-0.015625 0.09375v0.019531l-0.5625 6.4141h-26.359c-0.48047 0-0.86719 0.38672-0.86719 0.86328 0 0.48047 0.38672 0.86719 0.86719 0.86719h27.145c0.054687-0.003906 0.10547-0.007812 0.15625-0.015624l0.050781-0.011719h-0.003907c0.035157-0.007813 0.070313-0.019531 0.10156-0.03125l0.050781-0.019531c0.035156-0.015626 0.066406-0.035157 0.097656-0.054688 0.011719-0.007812 0.023438-0.011719 0.03125-0.019531h0.007813l4.6602-3.2695zm5.6328-5.6328h-3.8984l-0.003906-8.9492 3.8984-6.7617zm7.8281-32.727c-0.79297 0.25-1.6602 0.15625-2.3828-0.26172-0.72266-0.41406-1.2383-1.1172-1.418-1.9336l2.4336-4.207 3.8008 2.1914z"/>
<text x="0.0" y="117.5" font-size="5.0" font-weight="bold" font-family="Arbeit Regular, Helvetica, Arial-Unicode, Arial, Sans-serif" fill="#000000">Created by anastasya</text><text x="0.0" y="122.5" font-size="5.0" font-weight="bold" font-family="Arbeit Regular, Helvetica, Arial-Unicode, Arial, Sans-serif" fill="#000000">from Noun Project</text></svg>