<svg xmlns="http://www.w3.org/2000/svg" version="1.1" viewBox="-5.0 -10.0 110.0 135.0">
 <path d="m34.469 83h31.059c9.6328 0 17.473-7.8398 17.473-17.469v-31.062c0-9.6289-7.8398-17.469-17.469-17.469h-31.062c-9.6289 0-17.469 7.8398-17.469 17.469v31.059c0 9.6328 7.8398 17.473 17.469 17.473zm5.2305-35h8.3008v-8.3008c0-1.1016 0.89844-2 2-2s2 0.89844 2 2v8.3008h8.3008c1.1016 0 2 0.89844 2 2s-0.89844 2-2 2h-8.3008v8.3008c0 1.1016-0.89844 2-2 2s-2-0.89844-2-2v-8.3008h-8.3008c-1.1016 0-2-0.89844-2-2s0.89062-2 2-2z"/>
<text x="0.0" y="117.5" font-size="5.0" font-weight="bold" font-family="Arbeit Regular, Helvetica, Arial-Unicode, Arial, Sans-serif" fill="#000000">Created by Icon Master</text><text x="0.0" y="122.5" font-size="5.0" font-weight="bold" font-family="Arbeit Regular, Helvetica, Arial-Unicode, Arial, Sans-serif" fill="#000000">from Noun Project</text></svg>